<?xml version="1.0" standalone="no"?>
<!DOCTYPE svg PUBLIC "-//W3C//DTD SVG 20010904//EN"
 "http://www.w3.org/TR/2001/REC-SVG-20010904/DTD/svg10.dtd">
<svg version="1.0" xmlns="http://www.w3.org/2000/svg"
 width="423.000000pt" height="374.000000pt" viewBox="0 0 423.000000 374.000000"
 preserveAspectRatio="xMidYMid meet">

<g transform="translate(0.000000,374.000000) scale(0.100000,-0.100000)"
fill="#000000" stroke="none">
<path d="M1918 3704 c-539 -78 -1037 -400 -1313 -849 -27 -44 -50 -82 -52 -84
-2 -3 -16 7 -31 20 -37 34 -75 49 -123 49 -53 0 -78 -14 -95 -55 -30 -73 -11
-137 65 -225 55 -63 55 -60 13 -210 -49 -176 -56 -233 -57 -499 l-2 -254 -149
-87 c-213 -125 -209 -138 40 -142 l167 -3 33 -100 c39 -121 105 -261 175 -374
50 -80 52 -87 49 -145 l-3 -60 -80 -14 c-89 -14 -150 -40 -150 -62 0 -19 73
-46 148 -55 50 -6 59 -11 72 -36 9 -16 33 -38 55 -49 50 -25 180 -57 272 -66
65 -6 77 -11 147 -61 246 -177 513 -283 831 -329 138 -20 437 -15 568 10 268
50 489 138 707 281 l80 53 230 11 c317 17 502 42 612 83 53 20 71 41 52 64
-19 23 -116 53 -222 70 -160 25 -161 25 -88 40 138 29 88 54 -161 79 l-57 6
73 107 c89 131 174 302 220 442 l34 105 115 3 c117 3 144 12 132 44 -3 8 -49
39 -103 70 l-97 56 5 73 c10 141 4 463 -9 539 -142 826 -768 1438 -1591 1555
-130 18 -381 18 -512 -1z m592 -152 c232 -48 482 -156 670 -290 122 -86 316
-280 402 -402 139 -197 242 -435 290 -671 20 -98 23 -145 23 -331 0 -119 -3
-219 -7 -223 -4 -4 -70 29 -146 74 -125 73 -144 81 -190 81 -29 0 -52 2 -52 5
0 3 -21 87 -46 185 -26 99 -45 183 -42 186 3 2 25 0 49 -5 24 -6 96 -9 160 -8
99 2 120 5 138 21 12 11 21 26 21 34 0 29 -77 88 -158 122 -69 28 -82 37 -87
61 -10 44 -88 123 -147 150 -47 21 -67 24 -168 23 -109 -1 -119 -3 -184 -33
-56 -27 -76 -32 -108 -27 -59 10 -168 -4 -168 -20 0 -8 -4 -14 -10 -14 -5 0
-10 -12 -10 -27 l-1 -28 -19 24 c-27 32 -26 38 18 60 72 37 122 117 122 195 0
52 -7 55 -95 45 -44 -4 -90 -8 -103 -8 -18 -1 -22 -6 -20 -28 2 -42 -11 -73
-32 -73 -25 0 -40 29 -40 76 l0 37 -87 -7 c-49 -3 -89 -11 -91 -16 -6 -17 -19
-11 -56 27 -47 49 -58 36 -12 -15 27 -29 36 -48 36 -74 0 -43 46 -114 95 -147
39 -26 43 -39 18 -63 -10 -9 -26 -28 -36 -42 -9 -14 -38 -39 -63 -56 l-45 -31
-52 17 c-70 23 -72 24 -46 38 35 17 46 58 25 91 -22 34 -42 41 -80 27 -36 -14
-59 0 -27 17 47 25 66 114 37 170 -23 44 -64 65 -123 64 l-52 -1 39 50 c82
109 51 246 -71 308 -27 14 -39 27 -41 46 l-3 26 -27 -21 c-30 -24 -54 -27 -61
-8 -4 10 -7 10 -18 0 -19 -18 -26 -16 -33 10 -7 29 -46 51 -89 49 -136 -6
-272 -2 -275 7 -2 7 -12 5 -27 -5 -13 -9 -34 -15 -47 -13 -13 1 -30 -1 -38 -4
-8 -3 -32 -11 -52 -17 -58 -18 -113 -64 -140 -117 -13 -26 -41 -66 -61 -88
-43 -46 -72 -129 -63 -180 6 -28 3 -35 -13 -40 -27 -8 -89 -79 -97 -110 -9
-36 3 -89 27 -119 23 -29 88 -66 116 -66 31 -1 113 -58 113 -79 0 -11 5 -32
10 -47 l11 -27 28 34 28 34 7 -33 c11 -48 23 -48 58 3 35 49 65 58 104 30 13
-8 51 -15 96 -17 86 -3 115 10 149 70 23 40 70 65 141 75 20 3 52 13 71 22 33
15 36 15 68 -4 22 -14 51 -21 84 -21 53 0 86 -12 66 -24 -15 -9 -14 -59 1 -74
9 -9 -15 -12 -111 -12 -132 0 -228 -12 -332 -40 -86 -23 -140 -47 -271 -121
-59 -33 -122 -63 -141 -66 -64 -10 -128 43 -148 124 -19 72 -58 52 -59 -29 0
-16 -4 -28 -9 -28 -10 0 -14 10 -25 63 -15 66 -50 1 -43 -78 l5 -50 -39 45
c-22 25 -39 52 -39 61 0 8 -7 24 -15 35 -19 25 -19 31 5 37 34 9 24 44 -47
170 -70 122 -105 167 -130 167 -36 0 126 236 255 371 284 299 645 480 1062
533 19 2 123 3 230 1 143 -3 220 -9 290 -23z m-955 -400 c19 -10 16 -13 -29
-37 -23 -12 -62 -63 -54 -70 12 -12 97 40 103 63 3 15 13 22 29 22 12 0 31 9
41 20 34 38 128 20 125 -23 -4 -39 -1 -42 37 -42 l38 0 -3 -60 c-2 -33 -7 -64
-12 -68 -6 -7 -22 42 -25 78 0 6 -4 16 -9 23 -16 26 -53 -26 -73 -101 -17 -68
-18 -70 -21 -32 -5 88 -13 122 -27 122 -8 0 -13 -2 -10 -5 9 -9 -16 -42 -27
-36 -6 4 -8 3 -5 -3 4 -6 0 -19 -8 -29 -9 -13 -12 -34 -9 -64 5 -43 5 -44 -11
-25 -51 64 -79 85 -96 74 -29 -18 -37 -7 -53 80 -25 136 -25 134 33 128 27 -3
57 -9 66 -15z m-216 -57 c-5 -25 -9 -70 -10 -100 -2 -49 -4 -53 -21 -44 -22
12 -23 47 -2 77 16 24 11 62 -9 62 -7 0 -19 -17 -29 -38 l-16 -37 -1 31 c-1
31 17 55 62 80 34 19 35 17 26 -31z m61 -31 c0 -8 -4 -14 -10 -14 -5 0 -10 9
-10 21 0 11 5 17 10 14 6 -3 10 -13 10 -21z m591 -8 c62 -42 87 -133 57 -203
-15 -35 -74 -95 -113 -116 l-30 -15 7 126 c11 181 18 232 31 232 7 0 29 -11
48 -24z m-591 -20 c0 -3 -4 -8 -10 -11 -5 -3 -10 -1 -10 4 0 6 5 11 10 11 6 0
10 -2 10 -4z m-181 -84 c-2 -15 -1 -32 3 -37 3 -6 9 -24 12 -40 6 -27 1 -37
-38 -77 -26 -28 -46 -58 -48 -75 -2 -15 10 -81 26 -146 28 -116 29 -140 4
-120 -7 6 -29 14 -48 18 -105 22 -156 109 -112 192 14 26 64 63 85 63 11 0 14
14 13 68 0 70 12 105 56 155 31 35 50 35 47 -1z m201 -26 c0 -19 -5 -38 -11
-42 -6 -3 -20 -27 -32 -53 -18 -41 -21 -43 -28 -23 -6 17 -2 28 16 48 16 17
25 39 25 59 0 17 3 35 7 38 15 15 23 5 23 -27z m-125 -26 c14 -16 20 -17 27
-8 5 8 8 2 8 -17 0 -29 -2 -31 -32 -27 -30 3 -33 7 -33 38 0 39 5 42 30 14z
m499 -128 c26 -98 35 -117 48 -104 17 17 26 15 44 -12 36 -56 -45 -135 -138
-136 -20 0 -40 -4 -43 -10 -3 -5 -13 -10 -21 -10 -26 0 -7 79 26 115 23 24 30
45 40 113 11 81 19 116 25 110 2 -2 11 -31 19 -66z m-263 -12 c24 -34 42 -165
28 -213 -22 -80 -78 -22 -98 101 -18 115 21 179 70 112z m-1178 -39 c26 -73
67 -141 96 -160 26 -15 271 -283 271 -295 0 -25 -49 16 -187 157 -192 196
-220 239 -215 325 3 36 16 26 35 -27z m930 -23 c4 -12 1 -33 -6 -47 -15 -31
-40 -41 -36 -15 1 11 -1 27 -6 37 -8 19 10 47 30 47 7 0 15 -10 18 -22z m848
-9 c16 -11 27 -25 24 -30 -4 -5 -1 -9 4 -9 6 0 11 -16 11 -35 0 -19 -5 -35
-11 -35 -5 0 -8 -4 -4 -9 3 -5 -8 -19 -24 -30 -68 -49 -151 -8 -151 73 0 22 6
48 13 57 33 42 93 51 138 18z m-1627 -10 c46 -21 40 -83 -10 -95 -29 -7 -64
19 -64 48 0 16 32 58 45 58 2 0 15 -5 29 -11z m866 -102 c0 -18 16 -61 57
-156 5 -10 -2 -12 -28 -7 -122 20 -140 51 -83 139 38 57 54 64 54 24z m1998
-77 c70 -30 163 -133 105 -116 -61 18 -209 56 -273 71 -108 24 -109 24 -85 38
76 43 164 45 253 7z m-1143 -46 c9 -9 14 -21 12 -27 -6 -18 -33 -31 -51 -24
-19 7 -22 53 -3 60 20 9 25 8 42 -9z m384 -50 c-23 -25 -49 -22 -44 4 4 21 0
18 35 18 l30 0 -21 -22z m51 23 c0 -2 -15 -16 -32 -33 l-33 -29 29 33 c28 30
36 37 36 29z m10 -20 c0 -2 -12 -14 -27 -28 l-28 -24 24 28 c23 25 31 32 31
24z m230 -106 c46 -16 86 -34 88 -40 2 -6 -29 -59 -70 -119 -40 -60 -107 -158
-148 -219 l-75 -111 -7 56 c-14 106 -60 208 -129 286 -28 31 -39 51 -31 54 32
10 117 89 144 132 l30 48 56 -29 c31 -16 95 -43 142 -58z m-367 52 c-6 -16 -5
-17 13 -3 10 8 6 0 -10 -18 -29 -32 -43 -41 -31 -22 3 6 1 10 -6 10 -7 0 -2
11 11 25 28 30 32 31 23 8z m47 -6 c0 -2 -15 -16 -32 -33 l-33 -29 29 33 c28
30 36 37 36 29z m-650 -22 c0 -11 -12 -15 -50 -15 -78 0 -62 26 18 29 22 1 32
-4 32 -14z m137 0 c9 -24 -1 -28 -56 -20 -34 5 -51 12 -51 21 0 21 98 20 107
-1z m527 3 c-5 -8 -2 -9 9 -5 24 9 22 6 -19 -34 -25 -24 -33 -28 -28 -14 7 18
6 19 -12 5 -10 -8 -3 3 15 23 35 37 48 47 35 25z m-784 -13 c0 -10 -10 -15
-32 -15 -18 0 -44 -3 -58 -7 -43 -10 -12 11 33 24 57 15 57 15 57 -2z m343 9
c31 -6 37 -11 37 -31 0 -21 -3 -24 -22 -19 -13 4 -35 9 -50 12 -19 4 -28 13
-28 25 0 21 6 22 63 13z m1143 -22 c47 -17 70 -42 40 -42 -9 0 -16 -8 -16 -20
0 -11 6 -20 13 -20 11 0 90 -278 113 -397 l7 -33 -323 0 -322 0 19 28 c146
224 302 446 316 450 19 5 23 27 7 37 -5 3 -10 11 -10 17 0 15 96 3 156 -20z
m-1024 -9 c24 -9 44 -17 46 -19 2 -1 -4 -14 -13 -28 l-17 -25 -39 19 c-36 19
-50 46 -32 63 8 9 6 9 55 -10z m197 -2 c8 -14 7 -22 -4 -31 -11 -9 -18 -7 -33
8 -11 11 -24 17 -28 14 -4 -4 -4 -1 0 6 4 7 11 10 16 7 5 -3 11 -1 15 5 10 15
23 12 34 -9z m-792 -7 c-3 -3 -12 -4 -19 -1 -8 3 -5 6 6 6 11 1 17 -2 13 -5z
m823 -18 c0 -2 -8 -10 -17 -17 -16 -13 -17 -12 -4 4 13 16 21 21 21 13z m-96
-37 l49 -30 -38 -26 -37 -25 -31 29 c-18 15 -33 29 -35 29 -8 3 23 54 33 54 6
0 33 -14 59 -31z m-1802 -30 c15 9 23 10 31 2 6 -6 23 -11 37 -11 37 0 87 -58
239 -279 71 -104 88 -140 51 -106 -17 16 -27 16 -97 6 -43 -7 -127 -16 -187
-22 -86 -8 -118 -15 -151 -34 -70 -42 -68 -46 -62 158 2 100 10 207 16 237 7
30 14 65 17 78 4 22 5 22 45 -10 35 -28 42 -31 61 -19z m1908 47 c0 -2 -8 -10
-17 -17 -16 -13 -17 -12 -4 4 13 16 21 21 21 13z m-1670 -52 c0 -21 -4 -33
-10 -29 -17 10 -11 65 7 65 2 0 3 -16 3 -36z m17 -41 c-2 -16 -4 -5 -4 22 0
28 2 40 4 28 2 -13 2 -35 0 -50z m33 -14 c0 -21 -4 -39 -10 -39 -5 0 -10 21
-10 46 0 27 4 43 10 39 6 -3 10 -24 10 -46z m1620 6 c18 -19 32 -36 29 -39
-14 -12 -114 -37 -116 -29 -2 6 -10 19 -18 29 -12 17 -10 22 18 46 18 15 37
27 43 28 5 0 25 -16 44 -35z m-1603 -62 c-2 -16 -4 -3 -4 27 0 30 2 43 4 28 2
-16 2 -40 0 -55z m20 -20 c-2 -16 -4 -5 -4 22 0 28 2 40 4 28 2 -13 2 -35 0
-50z m1123 63 c0 -2 -8 -10 -17 -17 -16 -13 -17 -12 -4 4 13 16 21 21 21 13z
m-140 -25 c13 -25 13 -31 -1 -31 -5 0 -7 5 -3 12 4 7 3 8 -4 4 -6 -4 -9 -13
-6 -21 4 -8 10 -12 15 -9 5 3 9 0 9 -6 0 -6 5 -8 13 -4 8 5 8 2 -2 -9 -14 -18
-26 -23 -16 -8 3 5 -4 12 -15 16 -11 4 -18 10 -15 15 3 4 -2 11 -10 14 -13 4
-14 10 -5 26 13 25 26 25 40 1z m163 -13 c-10 -11 -19 -15 -21 -9 -2 6 -9 8
-15 4 -7 -3 -4 3 6 15 11 11 25 18 33 15 13 -5 12 -9 -3 -25z m-1113 -39 c0
-31 -4 -48 -10 -44 -5 3 -10 26 -10 51 0 24 5 44 10 44 6 0 10 -23 10 -51z
m1625 -5 c15 -25 25 -48 22 -50 -3 -3 -38 -8 -79 -11 l-74 -6 -10 34 -10 34
56 22 c30 12 58 22 62 22 3 1 18 -20 33 -45z m-1608 -46 c-2 -18 -4 -6 -4 27
0 33 2 48 4 33 2 -15 2 -42 0 -60z m696 63 c4 -4 -6 -32 -22 -62 -30 -55 -45
-103 -56 -171 -5 -29 -11 -38 -26 -38 -16 0 -18 5 -13 26 6 21 1 31 -27 55
-34 29 -35 30 -118 23 -63 -5 -82 -4 -77 5 12 19 -22 61 -49 61 -13 0 -27 -4
-30 -10 -3 -5 -19 -7 -36 -3 -20 4 -35 0 -47 -10 -20 -18 -24 -15 -87 51 l-39
42 53 -16 c39 -11 89 -15 175 -14 67 1 131 -1 143 -5 17 -6 22 -3 25 17 3 20
8 23 46 21 23 -1 42 2 42 7 0 5 16 2 35 -6 42 -17 55 -12 55 22 0 22 3 24 23
19 12 -4 25 -10 30 -14z m162 -11 c-3 -4 2 -10 10 -14 9 -3 12 -12 8 -22 -5
-13 -3 -15 8 -9 8 4 2 -5 -13 -22 -41 -43 -34 -52 10 -12 l37 34 -34 -37 -34
-37 -38 20 c-37 18 -52 39 -28 39 5 0 7 -6 3 -12 -4 -7 9 2 29 21 29 27 34 38
26 52 -7 15 -6 17 6 13 8 -3 13 -10 10 -14z m-838 -82 c-2 -18 -4 -6 -4 27 0
33 2 48 4 33 2 -15 2 -42 0 -60z m803 47 c-13 -14 -26 -23 -28 -20 -7 6 29 44
42 44 5 1 -1 -10 -14 -24z m-770 -56 c0 -37 -4 -58 -10 -54 -5 3 -10 31 -10
61 0 30 5 54 10 54 6 0 10 -27 10 -61z m17 -66 c-2 -21 -4 -4 -4 37 0 41 2 58
4 38 2 -21 2 -55 0 -75z m1099 85 c8 -27 -2 -35 -53 -43 -66 -9 -93 -16 -93
-24 0 -3 27 -28 60 -56 33 -27 60 -53 60 -57 0 -11 -258 -10 -264 1 -3 4 1 32
8 62 11 41 25 63 58 95 l45 42 86 -1 c73 -2 88 -5 93 -19z m-1079 -115 c-2
-21 -4 -4 -4 37 0 41 2 58 4 38 2 -21 2 -55 0 -75z m1557 99 c3 -5 8 -28 12
-50 l7 -42 -92 0 -91 0 0 44 0 45 43 4 c83 7 116 7 121 -1z m-1334 -47 c0 -19
-4 -35 -10 -35 -5 0 -10 16 -10 35 0 19 5 35 10 35 6 0 10 -16 10 -35z m580
31 c0 -2 -8 -10 -17 -17 -16 -13 -17 -12 -4 4 13 16 21 21 21 13z m-773 -118
c-2 -24 -4 -7 -4 37 0 44 2 63 4 43 2 -21 2 -57 0 -80z m210 65 c-3 -10 -5 -2
-5 17 0 19 2 27 5 18 2 -10 2 -26 0 -35z m446 34 c8 4 7 1 -1 -9 -14 -17 -6
-51 10 -42 7 4 6 9 -1 14 -9 5 -7 10 4 20 13 11 14 10 8 -6 -6 -17 -5 -17 10
-5 34 27 16 4 -30 -39 -26 -25 -37 -33 -24 -17 27 30 19 37 -13 10 -16 -14
-18 -14 -8 -2 6 9 9 19 5 22 -3 4 2 16 12 27 11 12 13 20 6 20 -7 0 -9 5 -5
12 6 9 9 9 12 0 2 -7 9 -9 15 -5z m-496 -19 c-3 -8 -6 -5 -6 6 -1 11 2 17 5
13 3 -3 4 -12 1 -19z m-140 -85 c-2 -21 -4 -6 -4 32 0 39 2 55 4 38 2 -18 2
-50 0 -70z m33 26 c0 -21 -4 -39 -10 -39 -5 0 -10 21 -10 46 0 27 4 43 10 39
6 -3 10 -24 10 -46z m670 48 c0 -2 -19 -21 -42 -42 l-43 -40 40 43 c36 39 45
47 45 39z m6 -26 c-12 -13 -13 -20 -6 -23 8 -2 7 -8 -4 -17 -12 -10 -16 -11
-16 -1 0 10 -4 9 -17 -1 -10 -7 -2 4 16 24 19 20 37 37 40 37 2 0 -4 -9 -13
-19z m-559 -3 c27 -12 29 -15 18 -41 l-11 -27 -33 34 c-23 24 -29 35 -19 39 7
3 14 6 14 6 1 1 15 -5 31 -11z m170 -55 c-2 -16 -4 -5 -4 22 0 28 2 40 4 28 2
-13 2 -35 0 -50z m33 22 c0 -25 -4 -45 -10 -45 -5 0 -10 20 -10 45 0 25 5 45
10 45 6 0 10 -20 10 -45z m17 -22 c-2 -16 -4 -5 -4 22 0 28 2 40 4 28 2 -13 2
-35 0 -50z m-320 -5 c-2 -13 -4 -3 -4 22 0 25 2 35 4 23 2 -13 2 -33 0 -45z
m253 22 c0 -22 -4 -40 -10 -40 -5 0 -10 18 -10 40 0 22 5 40 10 40 6 0 10 -18
10 -40z m120 -30 c0 -5 -9 -8 -20 -7 -16 1 -20 8 -20 42 l0 40 20 -33 c11 -18
20 -37 20 -42z m-353 3 c-3 -10 -5 -2 -5 17 0 19 2 27 5 18 2 -10 2 -26 0 -35z
m1463 17 l0 -30 -95 0 -95 0 0 30 0 30 95 0 95 0 0 -30z m-1263 -17 c-3 -10
-5 -4 -5 12 0 17 2 24 5 18 2 -7 2 -21 0 -30z m-167 7 c0 -11 -4 -20 -10 -20
-5 0 -10 9 -10 20 0 11 5 20 10 20 6 0 10 -9 10 -20z m-525 -90 c-3 -6 -23
-19 -43 -30 -57 -30 -22 -24 58 11 50 21 84 29 113 27 l42 -3 -43 -23 c-66
-35 -44 -36 37 -2 51 22 85 30 114 28 l42 -3 -42 -24 c-24 -14 -41 -26 -39
-28 1 -2 36 11 77 27 50 21 87 30 114 28 l40 -3 -42 -24 c-24 -14 -41 -26 -39
-28 1 -2 36 11 77 27 50 21 87 30 114 28 l40 -3 -47 -28 c-27 -15 -48 -29 -48
-31 0 -3 37 11 82 30 45 19 93 34 107 32 20 -2 -31 -36 -224 -150 l-249 -148
-379 0 c-219 0 -376 4 -373 9 3 5 97 62 208 126 112 65 221 128 243 141 42 25
71 31 60 14z m1137 -20 c80 -34 102 -33 36 2 l-43 23 51 3 c33 2 68 -4 100
-17 143 -57 144 -57 59 -6 l-40 24 52 1 c37 0 74 -10 133 -35 101 -43 111 -44
40 -2 l-55 32 48 3 c38 2 68 -5 133 -32 46 -19 84 -33 84 -31 0 2 -21 17 -47
32 l-48 28 51 3 c39 2 68 -5 134 -32 46 -20 85 -34 87 -32 2 1 -21 16 -49 32
l-53 29 51 3 c41 2 67 -4 132 -33 100 -43 114 -44 42 -2 l-55 32 47 3 c33 2
64 -5 110 -24 125 -52 138 -54 61 -7 l-48 28 46 3 c34 2 66 -6 129 -32 46 -20
85 -34 87 -32 2 2 -18 16 -44 32 l-48 29 46 3 c34 2 66 -6 129 -32 46 -20 85
-34 87 -32 2 2 -18 16 -44 32 l-48 29 46 3 c34 2 65 -6 128 -33 46 -19 86 -34
88 -31 2 2 -18 16 -44 32 l-48 29 46 3 c34 2 65 -6 128 -33 46 -19 86 -34 88
-31 2 2 -19 17 -48 33 -52 27 -52 28 -23 31 24 2 81 -27 265 -134 129 -75 241
-143 249 -150 12 -12 -130 -14 -929 -14 l-942 0 -242 142 c-133 77 -246 145
-251 150 -24 20 72 5 136 -22z m15 -142 l258 -153 -55 -5 -55 -5 0 -150 0
-150 118 -3 117 -3 0 41 0 40 -65 0 c-58 0 -65 2 -65 20 0 17 7 20 45 20 l45
0 0 40 0 40 -45 0 c-33 0 -45 4 -45 15 0 12 14 15 65 15 63 0 65 1 65 25 0 20
5 25 25 25 l25 0 0 -140 0 -140 115 0 115 0 0 40 0 40 -65 0 c-58 0 -65 2 -65
20 0 17 7 20 51 20 l50 0 -3 38 c-3 37 -3 37 -50 40 -34 2 -48 7 -48 18 0 11
15 14 65 14 63 0 65 1 65 25 0 20 5 25 25 25 l25 0 0 -140 0 -140 50 0 50 0 0
55 0 55 35 0 35 0 0 -55 0 -55 50 0 50 0 0 85 c0 78 -2 86 -24 100 -24 16 -24
17 -8 55 l17 40 363 0 362 0 -2 -357 -3 -358 -977 -3 -978 -2 0 530 c0 291 2
530 4 530 3 0 121 -69 263 -152z m-337 -388 l0 -520 -405 0 -405 0 0 360 0
360 43 -1 c37 0 40 -2 20 -11 -17 -8 -23 -20 -23 -45 0 -18 5 -33 10 -33 6 0
36 13 68 29 32 16 84 40 117 54 65 27 512 237 533 250 6 5 12 21 12 37 0 24 6
32 28 39 1 1 2 -233 2 -519z m1200 195 c0 -17 -31 -75 -39 -75 -6 0 -11 18
-11 40 0 36 3 40 25 40 14 0 25 -2 25 -5z m1120 -2 c0 -46 -130 -330 -195
-426 l-35 -52 0 243 0 242 115 0 c63 0 115 -3 115 -7z m-3270 -50 c0 -22 -2
-25 -10 -13 -13 20 -13 40 0 40 6 0 10 -12 10 -27z m1511 -829 c24 -8 82 -20
129 -25 47 -6 119 -19 160 -29 118 -29 481 -69 640 -70 22 0 21 -3 -15 -23
-116 -67 -309 -135 -475 -168 -133 -27 -399 -37 -537 -20 -120 15 -281 53
-388 93 -81 29 -283 126 -290 139 -3 3 32 10 78 14 163 14 328 56 357 90 18
22 280 21 341 -1z"/>
<path d="M2692 3088 c-13 -50 -36 -64 -45 -27 -3 12 -10 18 -15 15 -6 -3 -13
0 -15 6 -3 7 -6 -17 -6 -54 -1 -39 3 -68 9 -68 6 0 10 -7 10 -15 0 -8 7 -15
15 -15 8 0 15 6 15 14 0 7 9 16 19 19 15 4 21 17 26 69 9 87 3 116 -13 56z"/>
<path d="M2508 3095 c2 -13 1 -32 -2 -41 -6 -15 -9 -14 -26 6 -13 15 -20 18
-20 9 -1 -10 -4 -10 -14 3 -11 15 -12 10 -8 -35 3 -38 11 -58 28 -74 13 -12
24 -30 25 -40 0 -11 3 -13 6 -5 2 6 8 10 11 8 4 -2 6 15 6 37 -1 23 1 30 3 15
2 -16 8 -28 14 -28 12 0 11 86 -2 133 -11 41 -29 51 -21 12z"/>
<path d="M2565 3060 c-3 -5 -1 -10 4 -10 6 0 11 5 11 10 0 6 -2 10 -4 10 -3 0
-8 -4 -11 -10z"/>
<path d="M2901 3025 c-42 -56 -67 -63 -39 -12 10 19 9 20 -4 9 -12 -9 -17 -10
-20 -1 -2 6 -17 -6 -33 -27 -32 -42 -42 -106 -16 -96 10 4 12 1 6 -9 -13 -21
68 51 97 86 30 36 62 95 51 95 -5 0 -23 -21 -42 -45z"/>
<path d="M2315 2983 c8 -28 -10 -30 -37 -6 -18 16 -18 16 -12 -3 7 -17 6 -18
-11 -4 -10 8 -1 -13 21 -47 21 -34 41 -59 44 -55 8 12 30 8 40 -8 8 -12 10
-12 10 -1 0 11 3 11 15 1 9 -7 19 -10 22 -6 10 10 -24 70 -64 114 -27 30 -33
33 -28 15z"/>
<path d="M2935 2980 c-3 -6 1 -7 9 -4 18 7 21 14 7 14 -6 0 -13 -4 -16 -10z"/>
<path d="M2385 2970 c3 -5 8 -10 11 -10 2 0 4 5 4 10 0 6 -5 10 -11 10 -5 0
-7 -4 -4 -10z"/>
<path d="M2564 2940 c4 -25 12 -49 17 -55 7 -7 8 5 3 35 -4 25 -11 50 -17 55
-6 7 -7 -5 -3 -35z"/>
<path d="M2712 2968 c-14 -14 -16 -102 -3 -93 10 6 26 93 19 100 -2 3 -10 -1
-16 -7z"/>
<path d="M2844 2890 c-15 -22 -25 -43 -22 -46 6 -5 68 68 68 80 0 18 -23 1
-46 -34z"/>
<path d="M2421 2890 c0 -8 13 -31 29 -50 18 -20 30 -28 30 -19 0 8 -13 30 -30
49 -17 21 -29 29 -29 20z"/>
<path d="M3045 2869 c-55 -25 -89 -31 -55 -9 32 20 -3 9 -49 -16 -32 -17 -47
-32 -44 -41 3 -7 0 -20 -7 -28 -11 -13 -10 -14 6 -8 17 6 18 5 4 -12 -9 -11
-10 -16 -2 -11 6 4 12 2 12 -4 0 -5 24 2 53 17 48 25 50 27 27 33 -23 6 -22 8
25 32 55 28 103 64 95 71 -3 2 -32 -8 -65 -24z"/>
<path d="M2153 2856 c6 -15 4 -17 -13 -13 -11 3 -20 1 -20 -5 0 -5 -6 -6 -12
-2 -7 5 7 -15 32 -43 25 -28 48 -46 51 -41 9 14 14 14 32 -1 10 -7 17 -10 17
-7 0 4 9 2 20 -4 55 -29 -22 77 -85 116 -28 18 -29 18 -22 0z"/>
<path d="M2236 2845 c4 -8 10 -15 15 -15 4 0 6 7 3 15 -4 8 -10 15 -15 15 -4
0 -6 -7 -3 -15z"/>
<path d="M2586 2404 c-5 -14 -4 -15 9 -4 17 14 19 20 6 20 -5 0 -12 -7 -15
-16z"/>
<path d="M2510 2329 c0 -5 5 -7 10 -4 6 3 10 8 10 11 0 2 -4 4 -10 4 -5 0 -10
-5 -10 -11z"/>
<path d="M2570 2305 c-7 -9 -8 -15 -2 -15 5 0 12 7 16 15 3 8 4 15 2 15 -2 0
-9 -7 -16 -15z"/>
<path d="M3181 2274 c0 -11 3 -14 6 -6 3 7 2 16 -1 19 -3 4 -6 -2 -5 -13z"/>
<path d="M3210 2260 c0 -5 5 -10 10 -10 6 0 10 5 10 10 0 6 -4 10 -10 10 -5 0
-10 -4 -10 -10z"/>
<path d="M3251 2254 c0 -11 3 -14 6 -6 3 7 2 16 -1 19 -3 4 -6 -2 -5 -13z"/>
<path d="M3280 2244 c0 -8 5 -12 10 -9 6 3 10 10 10 16 0 5 -4 9 -10 9 -5 0
-10 -7 -10 -16z"/>
<path d="M3187 2138 c-20 -7 -26 -15 -22 -28 7 -23 -21 -35 -34 -13 -13 24
-77 5 -74 -23 1 -10 -5 -23 -13 -27 -8 -4 -14 -16 -14 -26 0 -11 -6 -21 -14
-24 -12 -5 -12 -13 -4 -41 9 -28 17 -36 35 -36 14 0 23 -6 23 -16 0 -11 6 -13
19 -9 13 4 23 0 29 -11 6 -10 16 -15 26 -11 10 4 20 -1 26 -14 6 -11 16 -16
22 -13 6 4 17 -1 24 -11 17 -23 48 -12 41 15 -3 13 1 21 14 25 11 4 16 12 12
22 -4 9 1 19 11 25 11 6 15 16 11 29 -4 13 -2 19 9 19 10 0 16 9 16 21 0 12 7
27 15 33 24 17 0 80 -27 72 -14 -3 -22 1 -25 15 -4 14 -11 17 -29 13 -18 -5
-24 -2 -24 10 0 18 -12 19 -53 4z m-50 -104 c3 -9 0 -20 -8 -25 -8 -4 -14 -16
-14 -26 0 -24 -39 -24 -43 0 -2 10 3 17 13 17 9 0 16 7 14 18 -2 27 0 32 16
32 9 0 18 -7 22 -16z"/>
<path d="M2439 2283 c-8 -9 -9 -14 -2 -10 6 4 13 2 15 -5 3 -9 6 -9 12 0 4 7
2 12 -4 12 -6 0 -8 5 -5 10 10 16 -1 11 -16 -7z"/>
<path d="M1879 2093 c-13 -16 -12 -17 4 -4 9 7 17 15 17 17 0 8 -8 3 -21 -13z"/>
<path d="M1809 1993 c-18 -20 -29 -33 -22 -29 6 3 13 1 15 -5 2 -5 14 2 28 16
21 23 22 25 5 19 -20 -7 -20 -7 -1 14 32 36 12 25 -25 -15z m11 -13 c0 -5 -5
-10 -11 -10 -5 0 -7 5 -4 10 3 6 8 10 11 10 2 0 4 -4 4 -10z"/>
<path d="M1720 1879 c0 -5 5 -7 10 -4 6 3 10 8 10 11 0 2 -4 4 -10 4 -5 0 -10
-5 -10 -11z"/>
<path d="M1722 1390 c-34 -14 -44 -55 -40 -163 4 -132 10 -137 155 -137 l104
0 -3 83 -3 82 -45 0 -45 0 -3 -43 c-3 -40 -5 -43 -30 -40 -25 3 -27 6 -30 61
-2 34 2 65 8 72 7 8 36 15 68 17 l57 3 0 35 0 35 -85 2 c-47 1 -95 -2 -108 -7z"/>
<path d="M1723 1020 c-31 -13 -43 -41 -43 -99 0 -42 4 -53 26 -70 15 -12 39
-21 55 -21 33 0 59 -9 59 -21 0 -5 -32 -9 -71 -9 l-70 0 3 -42 3 -43 96 0
c125 0 139 10 139 101 0 74 -13 87 -92 99 -67 9 -60 23 15 27 l62 3 0 40 0 40
-80 2 c-44 1 -90 -2 -102 -7z"/>
<path d="M1950 985 l0 -45 40 0 40 0 0 -116 0 -115 48 3 47 3 3 112 3 112 37
3 c36 3 37 4 37 43 l0 40 -127 3 -128 3 0 -46z"/>
<path d="M2283 1018 c-35 -17 -45 -58 -41 -162 3 -83 6 -98 26 -118 20 -20 32
-23 111 -23 128 0 131 4 131 156 0 115 -1 118 -26 138 -22 17 -40 21 -103 20
-42 0 -86 -5 -98 -11z m127 -87 c5 -11 10 -38 10 -61 0 -50 -14 -80 -38 -80
-31 0 -42 22 -42 80 0 31 5 61 12 68 18 18 46 14 58 -7z"/>
<path d="M2572 873 l3 -158 45 0 45 0 3 48 c3 46 4 47 37 47 33 0 34 -1 37
-47 l3 -48 45 0 45 0 3 72 c2 62 0 74 -16 84 -16 10 -17 17 -9 48 12 46 -4 88
-38 101 -15 6 -67 10 -116 10 l-90 0 3 -157z m146 53 c2 -10 -2 -22 -10 -27
-25 -17 -38 -9 -38 22 0 26 3 30 22 27 13 -2 24 -11 26 -22z"/>
<path d="M2895 1017 c-3 -7 -4 -78 -3 -157 l3 -145 115 0 115 0 0 40 0 40 -67
3 c-50 2 -68 7 -68 17 0 10 15 15 48 17 47 3 47 3 50 41 l3 37 -50 0 c-39 0
-51 4 -51 15 0 12 13 15 59 15 66 0 84 13 79 57 l-3 28 -113 3 c-86 2 -114 0
-117 -11z"/>
<path d="M1210 1449 c-528 -246 -470 -214 -470 -255 0 -25 4 -35 13 -31 6 3
172 80 367 170 l355 165 3 36 c2 20 0 36 -5 35 -4 0 -123 -54 -263 -120z"/>
<path d="M1390 1417 c-36 -18 -197 -93 -358 -167 l-292 -135 0 -32 c0 -18 4
-33 9 -33 5 0 94 40 198 88 103 49 266 124 361 167 172 79 172 79 172 112 0
40 -7 40 -90 0z"/>
<path d="M1275 1250 c-104 -49 -228 -107 -275 -129 -47 -22 -124 -58 -172 -80
-86 -39 -88 -41 -88 -76 0 -32 8 -43 22 -29 4 3 165 79 360 169 l353 163 3 36
c2 20 0 36 -5 35 -4 0 -93 -41 -198 -89z"/>
<path d="M1280 1137 c-178 -83 -293 -136 -452 -210 -85 -39 -88 -41 -88 -73 0
-19 3 -34 6 -34 3 0 31 12 62 26 31 15 114 53 185 85 70 33 185 86 255 118
226 104 232 107 232 141 0 18 -5 30 -12 29 -7 0 -92 -37 -188 -82z"/>
<path d="M1410 1082 c-31 -15 -94 -45 -140 -66 -47 -21 -155 -72 -240 -111
-85 -40 -185 -86 -222 -103 -66 -30 -68 -32 -68 -67 0 -26 4 -36 13 -32 6 3
172 80 367 170 l355 165 3 36 c2 20 0 36 -5 35 -4 0 -33 -13 -63 -27z"/>
<path d="M1153 848 c-167 -78 -303 -145 -303 -150 0 -4 27 -8 60 -8 55 0 79 9
302 112 134 61 249 116 256 121 6 5 12 22 12 38 0 17 -5 29 -12 28 -7 0 -149
-64 -315 -141z"/>
<path d="M1278 792 c-103 -48 -188 -91 -188 -96 0 -4 33 -6 73 -4 60 4 88 12
172 52 55 26 110 52 123 57 17 7 22 16 22 44 0 19 -3 35 -7 34 -5 0 -92 -39
-195 -87z"/>
<path d="M1408 733 c-32 -14 -58 -30 -58 -35 0 -5 28 -8 63 -6 62 3 62 3 65
36 2 17 0 32 -5 32 -4 0 -34 -12 -65 -27z"/>
<path d="M1830 433 c-62 -11 -100 -25 -100 -37 0 -21 79 -36 192 -36 123 0
178 13 178 40 0 14 -11 22 -37 29 -37 11 -182 13 -233 4z"/>
</g>
</svg>
